# Blender 4.4.0
# www.blender.org
mtllib saber_hilt.mtl
o Hilt
v -0.018851 -0.100320 0.143721
v -0.014317 -0.068082 0.274820
v -0.029071 -0.060100 0.124250
v -0.029607 -0.048785 0.178027
v -0.014154 0.096966 0.137228
v 0.011437 0.044891 0.198883
v 0.019665 0.033668 0.178031
v 0.029071 -0.000002 0.126950
v 0.020160 -0.100320 0.143721
v 0.018388 -0.086167 0.066138
v 0.000000 -0.101433 0.000644
v -0.018388 -0.086167 0.066138
v 0.029071 -0.060100 0.124250
v -0.023009 -0.000002 -0.099834
v 0.000000 -0.031265 -0.099834
v 0.000000 -0.000002 -0.155389
v -0.011437 0.044891 0.198883
v -0.019665 0.033668 0.178031
v -0.017558 -0.096160 0.187408
v 0.000000 -0.132625 0.177541
v 0.000000 -0.128219 0.083017
v 0.000000 0.108774 0.173669
v 0.014154 0.096966 0.137228
v 0.000000 0.030341 0.110380
v -0.019239 -0.000002 0.004521
v -0.029071 -0.000002 0.126950
v 0.000000 -0.030346 0.110380
v 0.000000 -0.020587 -0.047794
v 0.019239 -0.000002 0.004521
v 0.023009 -0.000002 -0.099834
v 0.000000 0.031261 -0.099834
v 0.000000 0.020584 -0.047794
v 0.029607 -0.048785 0.178027
v 0.017558 -0.096160 0.187408
v 0.014317 -0.068082 0.274820
v 0.000000 -0.086825 0.269355
v -0.084024 0.000000 0.235700
v -0.084024 0.000000 0.210950
v -0.059414 -0.059414 0.210950
v -0.000000 -0.084024 0.210950
v -0.059414 -0.059414 0.235700
v -0.000000 -0.084024 0.235700
v 0.059414 -0.059414 0.210950
v 0.059414 -0.059414 0.235700
v 0.084024 0.000000 0.210950
v 0.059414 0.059414 0.210950
v 0.084024 0.000000 0.235700
v -0.000000 0.084024 0.210950
v 0.059414 0.059414 0.235700
v -0.059414 0.059414 0.210950
v -0.000000 0.084024 0.235700
v -0.059414 0.059414 0.235700
vn -0.7640 -0.5623 -0.3164
vn -0.4631 0.0398 -0.8854
vn -0.8521 -0.5228 -0.0244
vn -0.8914 -0.4479 0.0690
vn -0.9702 -0.2366 0.0512
vn -0.9684 -0.2249 0.1081
vn -0.9004 -0.4271 -0.0833
vn -0.9610 -0.2709 -0.0552
vn -0.9728 -0.2286 0.0384
vn -0.9999 0.0005 -0.0101
vn -0.9875 0.1191 0.1033
vn -0.9859 0.1424 0.0877
vn -0.9403 0.2384 0.2428
vn -0.9235 0.2721 0.2705
vn -0.0000 0.3671 0.9302
vn 0.9235 0.2721 0.2705
vn 0.9403 0.2384 0.2428
vn 0.9859 0.1424 0.0877
vn 0.9875 0.1191 0.1033
vn 0.9999 0.0005 -0.0101
vn 0.9790 -0.2011 0.0325
vn 0.9668 -0.2467 -0.0671
vn 0.8965 -0.4318 -0.0993
vn 0.8840 -0.4446 -0.1446
vn -0.8840 -0.4446 -0.1446
vn -0.0000 0.9739 -0.2270
vn -0.0000 0.9124 -0.4093
vn -0.0000 -0.4225 -0.9064
vn 0.4631 0.0398 -0.8854
vn 0.7368 -0.6735 -0.0592
vn 0.7368 0.6736 -0.0592
vn 0.7773 0.6280 -0.0387
vn -0.7773 0.6280 -0.0387
vn -0.6976 0.7160 0.0252
vn -0.6976 -0.7160 0.0252
vn -0.7995 -0.5884 0.1207
vn 0.7995 -0.5884 0.1207
vn 0.7640 -0.5623 -0.3164
vn 0.7640 0.5623 -0.3164
vn -0.7640 0.5623 -0.3164
vn -0.7995 0.5884 0.1207
vn 0.6199 0.1764 -0.7646
vn -0.0000 -0.8806 0.4739
vn -0.0000 -0.0000 1.0000
vn -0.0000 0.9807 0.1955
vn -0.0000 -0.2799 0.9600
vn -0.7397 -0.6322 0.2305
vn -0.0000 -0.9936 0.1132
vn -0.0000 -0.2612 0.9653
vn 0.8864 -0.4528 0.0959
vn 0.8358 -0.5484 -0.0256
vn -0.0000 0.9513 -0.3082
vn -0.0000 0.3738 -0.9275
vn -0.6199 0.1764 -0.7646
vn -0.7368 0.6736 -0.0592
vn -0.7368 -0.6735 -0.0592
vn -0.7773 -0.6280 -0.0387
vn 0.7773 -0.6280 -0.0387
vn 0.6976 -0.7160 0.0252
vn 0.6976 0.7160 0.0252
vn 0.7995 0.5884 0.1207
vn 0.9697 -0.2308 0.0797
vn 0.9684 -0.2249 0.1081
vn 0.7397 -0.6322 0.2305
vn -0.9239 0.3827 -0.0000
vn -0.9239 -0.3827 -0.0000
vn -0.3827 -0.9239 -0.0000
vn 0.3827 -0.9239 -0.0000
vn 0.9239 -0.3827 -0.0000
vn 0.9239 0.3827 -0.0000
vn 0.3827 0.9239 -0.0000
vn -0.3827 0.9239 -0.0000
vt 0.345098 0.988235
vt 0.227451 0.905882
vt 0.345098 0.905882
vt 0.196078 0.333333
vt 0.345098 0.313725
vt 0.231373 0.388235
vt 0.011765 0.419608
vt 0.003922 0.176471
vt 0.094118 0.266667
vt 0.090196 0.172549
vt 0.254902 0.164706
vt 0.207843 0.027451
vt 0.113725 0.494118
vt 0.411765 0.164706
vt 0.584314 0.298039
vt 0.454902 0.078431
vt 0.619608 0.188235
vt 0.098039 0.682353
vt 0.345098 0.619608
vt 0.447059 0.368627
vt 0.411765 0.674510
vt 0.262745 0.674510
vt 0.443137 0.905882
vt 0.129412 0.043137
vt 0.643137 0.843137
vt 0.980392 0.984314
vt 0.643137 0.984314
vt 0.980392 0.843137
vt 0.980392 0.498039
vt 0.643137 0.498039
vt 0.980392 0.152941
vt 0.643137 0.152941
vt 0.980392 0.011765
vt 0.643137 0.011765
s 0
usemtl Material_0
f 16/1/1 15/2/1 14/3/1
f 3/4/2 26/5/2 27/6/2
f 21/7/3 20/8/3 1/9/3
f 20/8/4 19/10/4 1/9/4
f 1/9/5 19/10/5 4/11/5
f 19/10/6 2/12/6 4/11/6
f 21/7/7 1/9/7 12/13/7
f 12/13/8 1/9/8 3/4/8
f 1/9/9 4/11/9 3/4/9
f 3/4/10 4/11/10 26/5/10
f 4/11/11 18/14/11 26/5/11
f 26/5/12 18/14/12 5/15/12
f 18/14/13 17/16/13 5/15/13
f 5/15/14 17/16/14 22/17/14
f 17/16/15 6/16/15 22/17/15
f 22/17/16 6/16/16 23/15/16
f 6/16/17 7/14/17 23/15/17
f 23/15/18 7/14/18 8/5/18
f 7/14/19 33/11/19 8/5/19
f 8/5/20 33/11/20 13/4/20
f 33/11/21 9/9/21 13/4/21
f 13/4/22 9/9/22 10/13/22
f 9/9/23 21/7/23 10/13/23
f 10/13/24 21/7/24 11/18/24
f 21/7/25 12/13/25 11/18/25
f 11/18/26 12/13/26 10/13/26
f 12/13/27 3/4/27 10/13/27
f 10/13/27 3/4/27 13/4/27
f 3/4/28 27/6/28 13/4/28
f 13/4/29 27/6/29 8/5/29
f 27/6/30 29/19/30 8/5/30
f 8/5/31 29/19/31 24/20/31
f 29/19/32 32/21/32 24/20/32
f 24/20/33 32/21/33 25/19/33
f 32/21/34 14/3/34 25/19/34
f 25/19/35 14/3/35 28/22/35
f 14/3/36 15/2/36 28/22/36
f 28/22/37 15/2/37 30/3/37
f 15/2/38 16/1/38 30/3/38
f 30/3/39 16/1/39 31/23/39
f 16/1/40 14/3/40 31/23/40
f 31/23/41 14/3/41 32/21/41
f 23/15/42 8/5/42 24/20/42
f 17/16/43 18/14/43 6/16/43
f 6/16/43 18/14/43 7/14/43
f 7/14/44 18/14/44 33/11/44
f 18/14/44 4/11/44 33/11/44
f 33/11/45 4/11/45 35/12/45
f 4/11/45 2/12/45 35/12/45
f 35/12/46 2/12/46 36/24/46
s 1
f 2/12/47 19/10/47 36/24/47
s 0
f 36/24/48 19/10/48 34/10/48
f 19/10/49 20/8/49 34/10/49
f 34/10/50 20/8/50 9/9/50
f 20/8/51 21/7/51 9/9/51
f 22/17/52 23/15/52 5/15/52
f 23/15/53 24/20/53 5/15/53
f 5/15/54 24/20/54 26/5/54
f 24/20/55 25/19/55 26/5/55
f 26/5/56 25/19/56 27/6/56
f 25/19/57 28/22/57 27/6/57
f 27/6/58 28/22/58 29/19/58
f 28/22/59 30/3/59 29/19/59
f 29/19/60 30/3/60 32/21/60
f 30/3/61 31/23/61 32/21/61
f 9/9/62 33/11/62 34/10/62
f 33/11/63 35/12/63 34/10/63
s 1
f 34/10/64 35/12/64 36/24/64
s 0
usemtl Material_1
f 52/25/65 38/26/65 37/27/65
f 38/26/66 39/28/66 37/27/66
f 37/27/66 39/28/66 41/25/66
f 39/28/67 40/29/67 41/25/67
f 41/25/67 40/29/67 42/30/67
f 40/29/68 43/31/68 42/30/68
f 42/30/68 43/31/68 44/32/68
f 43/31/69 45/33/69 44/32/69
f 44/32/69 45/33/69 47/34/69
f 45/33/70 46/31/70 47/34/70
f 47/34/70 46/31/70 49/32/70
f 46/31/71 48/29/71 49/32/71
f 49/32/71 48/29/71 51/30/71
f 48/29/72 50/28/72 51/30/72
f 51/30/72 50/28/72 52/25/72
f 50/28/65 38/26/65 52/25/65
