# Blender 4.4.0
# www.blender.org
mtllib saber_blade.mtl
o Blade
v 0.000000 -0.000003 0.990835
v 0.000000 0.046912 0.106086
v 0.000000 -0.000003 0.014375
v 0.020702 -0.000003 0.106086
v -0.020702 -0.000003 0.106086
v 0.000000 -0.046917 0.106086
v 0.000000 -0.000003 -0.000063
v -0.027658 -0.000003 0.104763
v 0.000000 -0.084589 0.104763
v 0.000000 -0.000003 1.424018
v 0.000000 0.084583 0.104763
v 0.027658 -0.000003 0.104763
vn 0.9147 0.4036 0.0214
vn 0.8960 -0.3954 -0.2023
vn 0.8960 0.3954 -0.2023
vn 0.8671 0.4962 0.0439
vn -0.8925 0.2363 -0.3843
vn -0.8960 0.3954 -0.2023
vn -0.9147 0.4036 0.0214
vn -0.9147 -0.4036 0.0214
vn 0.9147 -0.4036 0.0214
vn -0.8960 -0.3954 -0.2023
vn 0.9219 -0.3015 0.2432
vn -0.9219 -0.3015 0.2432
vn -0.9219 0.3015 0.2432
vn 0.9219 0.3015 0.2432
vn 0.9503 0.3107 -0.0199
vn 0.9503 -0.3107 -0.0199
vn -0.9503 -0.3107 -0.0199
vn -0.9503 0.3107 -0.0199
vt 0.000000 1.000000
vt 0.650980 0.494118
vt 0.823529 0.776471
vt 0.823529 0.952941
vt 0.996078 0.494118
vt 0.823529 0.011765
s 0
usemtl Material.001
f 1/1/1 4/1/1 2/1/1
f 6/1/2 3/1/2 4/1/2
s 1
f 4/1/3 3/1/4 2/1/5
f 3/1/4 5/1/6 2/1/5
s 0
f 2/1/7 5/1/7 1/1/7
f 5/1/8 6/1/8 1/1/8
f 1/1/9 6/1/9 4/1/9
f 5/1/10 3/1/10 6/1/10
f 11/2/11 8/3/11 7/4/11
f 11/2/12 7/4/12 12/3/12
f 12/3/13 7/4/13 9/5/13
f 7/4/14 8/3/14 9/5/14
f 9/5/15 8/3/15 10/6/15
f 8/3/16 11/2/16 10/6/16
f 10/6/17 11/2/17 12/3/17
f 9/5/18 10/6/18 12/3/18
